<?xml version="1.0" encoding="UTF-8"?>
<svg version="1.1" viewBox="0 0 512 512" xmlns="http://www.w3.org/2000/svg">
 <path d="m479.92 225.86v120m-84.853-35.147 84.853-84.853m35.147 84.853h-120m35.147-84.853 84.853 84.853m-84.853 35.147v-120m84.853 35.148-84.853 84.852m-35.147-84.852h120m-35.147 84.852-84.853-84.852m84.853-35.148v120m-58-220.46 58 100.46m-88.023 11.589 30.023-112.05m70.436 54.048-100.46 58m-11.588-88.023 112.05 30.023m-54.047 70.436-58-100.46m88.023-11.589-30.023 112.05m-70.436-54.048 100.46-58m11.588 88.023-112.05-30.023m54.047-70.436 58 100.46m-155-156.46 96.995 56m-68.007 52.184-28.988-108.18m84.988 11.189-56 96.995m-52.184-68.007 108.18-28.988m-11.189 84.988-96.995-56m68.007-52.184 28.988 108.18m-84.988-11.189 56-96.995m52.184 68.007-108.18 28.988m11.189-84.988 96.995 56m-205-56h108m-31.632 76.368-76.368-76.368m76.368-31.632v108m-76.368-31.632 76.368-76.368m31.632 76.368h-108m31.633-76.368 76.367 76.368m-76.367 31.632v-108m76.367 31.632-76.367 76.368m-31.633-76.368h108m-198.07 52 90.066-52m10.39 78.918-100.46-26.918m48.456-63.149 52 90.067m-78.917 10.389 26.917-100.46m63.149 48.456-90.066 52m-10.39-78.917 100.46 26.917m-48.456 63.15-52-90.067m78.917-10.39-26.917 100.46m-63.149-48.457 90.066-52m-140.07 138.6 50-86.603m46.592 60.721-96.592 25.882m9.99-75.882 86.602 50m-60.72 46.593-25.882-96.593m75.882 9.99-50 86.603m-46.593-60.721 96.593-25.882m-9.991 75.882-86.602-50m60.721-46.593 25.881 96.593m-75.881-9.99 50-86.603m-50 182.6v-96m67.882 28.118-67.882 67.882m-28.118-67.882h96m-28.118 67.882-67.882-67.882m67.882-28.118v96m-67.882-28.118 67.882-67.882m28.118 67.882h-96m28.118-67.882 67.882 67.882m-67.882 28.118v-96m46 175.67-46-79.674m69.811-9.191-23.811 88.865m-55.863-42.865 79.674-46m9.191 69.812-88.865-23.812m42.865-55.863 46 79.675m-69.812 9.19 23.812-88.865m55.863 42.865-79.675 46m-9.19-69.811 88.865 23.811m-42.865 55.863-46-79.674m122.21 123.67-76.21-44m53.434-41.001 22.776 85.001m-66.776-8.791 44-76.21m41.001 53.434-85.001 22.776m8.791-66.776 76.21 44m-53.434 41.001-22.776-85.001m66.776 8.791-44 76.21m-41.001-53.434 85.001-22.776m-8.791 66.776-76.21-44m160.21 44h-84m24.603-59.397 59.397 59.397m-59.397 24.603v-84m59.397 24.603-59.397 59.397m-24.603-59.397h84m-24.603 59.397-59.397-59.397m59.397-24.603v84m-59.397-24.603 59.397-59.397m24.603 59.397h-84m153.28-40-69.282 40m-7.992-60.705 77.274 20.705m-37.274 48.577-40-69.282m60.705-7.992-20.705 77.274m-48.577-37.274 69.282-40m7.992 60.705-77.274-20.705m37.274-48.577 40 69.282m-60.705 7.992 20.705-77.274m48.577 37.274-69.282 40m107.28-105.82-38 65.818m-35.411-46.147 73.411-19.671m-7.593 57.671-65.818-38m46.148-35.411 19.67 73.411m-57.67-7.593 38-65.818m35.411 46.148-73.411 19.67m7.593-57.67 65.818 38m-46.148 35.41-19.67-73.41m57.67 7.592-38 65.818m38-137.82v72m-50.912-21.088 50.912-50.912m21.088 50.912h-72m21.088-50.912 50.912 50.912m-50.912 21.088v-72m50.912 21.089-50.912 50.911m-21.088-50.911h72m-21.088 50.911-50.912-50.911m50.912-21.089v72m-34-130.89 34 58.889m-51.6 6.794 17.6-65.683m41.29 31.683-58.89 34m-6.793-51.6 65.683 17.6m-31.683 41.29-34-58.89m51.6-6.793-17.6 65.683m-41.29-31.683 58.89-34m6.793 51.599-65.683-17.599m31.683-41.29 34 58.889m-89.426-90.889 55.426 32m-38.861 29.819-16.565-61.819m48.565 6.393-32 55.426m-29.82-38.861 61.82-16.565m-6.394 48.565-55.426-32m38.862-29.82 16.564 61.82m-48.564-6.394 32-55.426m29.819 38.862-61.819 16.564m6.393-48.564 55.426 32m-115.43-32h60m-17.573 42.426-42.427-42.426m42.427-17.574v60m-42.427-17.574 42.427-42.426m17.573 42.426h-60m17.574-42.426 42.426 42.426m-42.426 17.574v-60m42.426 17.574-42.426 42.426m-17.574-42.426h60m-108.5 28 48.497-28m5.595 42.494-54.092-14.494m26.092-34.004 28 48.498m-42.494 5.594 14.494-54.092m34.003 26.092-48.497 28m-5.595-42.494 54.092 14.494m-26.092 34.004-28-48.498m42.494-5.594-14.494 54.092m-34.003-26.092 48.497-28m-74.497 73.033 26-45.033m24.228 31.574-50.228 13.459m5.195-39.459 45.033 26m-31.575 24.229-13.458-50.229m39.458 5.195-26 45.034m-24.228-31.575 50.228-13.459m-5.195 39.459-45.033-26m31.575-24.228 13.458 50.228m-39.458-5.195 26-45.033m-26 93.033v-48m33.941 14.059-33.941 33.941m-14.059-33.941h48m-14.059 33.941-33.941-33.941m33.941-14.059v48m-33.941-14.059 33.941-33.941m14.059 33.941h-48m14.059-33.941 33.941 33.941m-33.941 14.059v-48m22 86.105-22-38.105m33.388-4.396-11.388 42.501m-26.717-20.501 38.105-22m4.395 33.388-42.5-11.388m20.5-26.717 22 38.105m-33.388 4.396 11.388-42.501m26.718 20.501-38.106 22m-4.395-33.388 42.501 11.388m-20.501 26.717-22-38.105m56.641 58.105-34.641-20m24.288-18.637 10.353 38.637m-30.353-3.996 20-34.641m18.637 24.288-38.637 10.353m3.996-30.353 34.641 20m-24.288 18.637-10.353-38.637m30.353 3.996-20 34.641m-18.637-24.288 38.637-10.353m-3.996 30.353-34.641-20m70.641 20h-36m10.544-25.456 25.456 25.456m-25.456 10.544v-36m25.456 10.544-25.456 25.456m-10.544-25.456h36m-10.544 25.456-25.456-25.456m25.456-10.544v36m-25.456-10.544 25.456-25.456m10.544 25.456h-36m63.713-16-27.713 16m-3.197-24.282 30.91 8.282m-14.91 19.431-16-27.713m24.282-3.197-8.282 30.91m-19.431-14.91 27.713-16m3.197 24.282-30.91-8.282m14.91-19.431 16 27.713m-24.282 3.197 8.282-30.91m19.431 14.91-27.713 16m41.713-40.249-14 24.249m-13.046-17.002 27.046-7.247m-2.798 21.247-24.248-14m17.001-13.046 7.247 27.046m-21.247-2.797 14-24.249m13.046 17.002-27.046 7.247m2.798-21.247 24.248 14m-17.001 13.046-7.247-27.046m21.247 2.797-14 24.249m14-48.249v24m-16.971-7.029 16.971-16.971m7.029 16.971h-24m7.029-16.971 16.971 16.971m-16.971 7.029v-24m16.971 7.03-16.971 16.97m-7.029-16.97h24m-7.029 16.97-16.971-16.97m16.971-7.03v24m-10-41.32 10 17.32m-15.177 1.998 5.177-19.318m12.144 9.318-17.321 10m-1.998-15.176 19.319 5.176m-9.319 12.145-10-17.321m15.177-1.998-5.177 19.319m-12.144-9.319 17.321-10m1.998 15.176-19.319-5.176m9.319-12.144 10 17.32m-23.857-25.32 13.857 8m-9.716 7.455-4.141-15.455m12.141 1.598-8 13.857m-7.455-9.716 15.455-4.141m-1.598 12.141-13.857-8m9.716-7.454 4.141 15.454m-12.141-1.598 8-13.856m7.455 9.715-15.455 4.141m1.598-12.141 13.857 8m-25.857-8h12m-3.515 8.485-8.485-8.485m8.485-3.515v12m-8.485-3.515 8.485-8.485m3.515 8.485h-12m3.515-8.485 8.485 8.485m-8.485 3.515v-12m8.485 3.515-8.485 8.485m-3.515-8.485h12m-18.928 4 6.928-4m0.799 6.07-7.727-2.07m3.727-4.858 4 6.928m-6.07 0.8 2.07-7.728m4.858 3.728-6.928 4m-0.799-6.071 7.727 2.071m-3.727 4.857-4-6.928m6.07-0.799-2.07 7.727m-4.858-3.727 6.928-4m-8.928 7.464 2-3.464m1.864 2.429-3.864 1.035m0.4-3.035 3.464 2m-2.429 1.863-1.035-3.863m3.035 0.399-2 3.464m-1.864-2.428 3.864-1.036m-0.4 3.036-3.464-2m2.429-1.864 1.035 3.864m-3.035-0.4 2-3.464" stroke="#000"/>
 <path d="m475.92 352.78 14.928-9.856m-14.928 9.856 1.072-17.856m2.928 10.928 10.928-2.928m-10.928 2.928-2.928-10.928" stroke="#000" stroke-linecap="round" stroke-opacity=".5"/>
</svg>
